<svg width="239" height="258" viewBox="0 0 239 258" fill="none" xmlns="http://www.w3.org/2000/svg">
<mask id="path-1-outside-1_70_70" maskUnits="userSpaceOnUse" x="0" y="0" width="239" height="258" fill="black">
<rect fill="white" width="239" height="258"/>
<path d="M7.39187 154.157C-1.13061 145.653 -1.13063 131.865 7.39185 123.362L104.069 26.8961C112.591 18.3922 126.409 18.3922 134.931 26.896L231.608 123.361C240.131 131.865 240.131 145.653 231.608 154.157L134.931 250.622C126.409 259.126 112.591 259.126 104.069 250.622L7.39187 154.157Z"/>
<path d="M182.386 165.682C185.538 166.156 188.628 164.388 189.551 161.344C191.823 153.841 192.895 146.009 192.714 138.144C192.492 128.46 190.376 118.915 186.487 110.054C182.597 101.193 177.011 93.1889 170.047 86.4995C163.297 80.0159 163.531 80.3572 155.377 75.5874C154.843 75.2749 154.283 75.0072 153.704 74.7887L150.324 73.5138C149.19 73.086 147.958 72.9859 146.77 73.225C145.517 73.4771 144.367 74.0953 143.467 75.0009L142.785 75.6866C142.173 76.3021 141.713 77.0508 141.44 77.8738C140.776 79.8767 141.296 82.0818 142.785 83.5795L142.935 83.7301C143.212 84.0087 143.515 84.2593 143.842 84.4782L144.928 85.2065C145.372 85.5044 145.786 85.8454 146.162 86.2245L146.334 86.3969C146.836 86.9021 147.417 87.3231 148.054 87.6434C148.41 87.8224 148.749 88.0331 149.066 88.2729L151.582 90.1704L153.826 91.6757L158.279 95.5951C159.292 96.4869 160.131 97.5586 160.752 98.7559L168.393 113.489C168.658 113.999 168.882 114.53 169.062 115.075L175.525 134.578L177.391 141.461C177.642 142.388 177.769 143.344 177.769 144.304V152.013C177.769 152.93 177.648 153.843 177.408 154.728L176.774 157.066C176.022 159.838 177.088 162.797 179.424 164.476C180.3 165.105 181.319 165.521 182.386 165.682Z"/>
<path d="M55.1688 159.986C52.616 162.082 51.595 165.594 52.9422 168.607C56.1494 175.778 60.4728 182.398 65.7586 188.213C72.2767 195.384 80.1305 201.189 88.8717 205.296C97.6128 209.404 107.07 211.734 116.703 212.153C125.2 212.523 133.688 211.4 141.788 208.843C143.856 208.19 145.47 206.556 146.243 204.535C147.773 200.536 145.624 196.025 141.528 194.753C140.107 194.312 138.591 194.331 137.138 194.656C130.464 196.149 124.106 195.29 117.437 195C110.035 194.678 102.769 192.888 96.0538 189.732C89.3381 186.576 83.3042 182.116 78.2964 176.607C73.2887 171.098 72.665 169.125 70.4173 166.857L67.4203 163.076L66.281 161.466C64.6731 159.195 61.9534 157.976 59.1837 158.287C57.7135 158.452 56.3112 159.048 55.1688 159.986Z"/>
<path d="M89.0275 71.494C79.0576 75.3574 74.8442 79.6151 67.4304 87.2771C61.3224 93.5895 56.4142 100.926 52.9247 108.931C51.6017 111.966 52.7855 115.449 55.526 117.313C56.7462 118.143 58.1888 118.588 59.6657 118.588H61.3873C62.7092 118.588 63.9957 118.161 65.0552 117.373C65.958 116.701 66.6579 115.793 67.0781 114.751L67.9417 112.607L70.954 107.375C75.2005 101.052 74.4741 102.51 79.0452 97.8775C79.6755 97.2388 80.3766 96.6666 81.1462 96.2041C85.9001 93.3473 87.6026 92.8747 91.2481 88.8369C91.7808 88.2469 92.3615 87.6998 92.9994 87.2249L95.0519 85.6968L97.012 84.3997C98.658 83.3105 99.8371 81.6474 100.319 79.736L100.372 79.5219C100.825 77.7251 100.58 75.8239 99.6877 74.1994C97.9005 70.9469 93.9637 69.534 90.5097 70.9055L89.0275 71.494Z"/>
<path d="M179.64 139.274C179.64 172.346 152.771 199.157 119.626 199.157C86.4815 199.157 59.6124 172.346 59.6124 139.274C59.6124 106.202 86.4815 79.3917 119.626 79.3917C152.771 79.3917 179.64 106.202 179.64 139.274Z"/>
<path d="M104.045 144.789C101.11 141.854 101.11 137.096 104.045 134.162L114.672 123.535C117.607 120.601 122.365 120.601 125.3 123.535L192.715 190.945C195.65 193.88 195.65 198.638 192.715 201.572L182.088 212.199C179.153 215.133 174.395 215.133 171.46 212.199L104.045 144.789Z"/>
<path d="M104.743 8.51423C104.743 4.36424 108.107 1 112.258 1H127.287C131.438 1 134.802 4.36423 134.802 8.51423V146.776C134.802 150.926 131.438 154.29 127.287 154.29H112.258C108.107 154.29 104.743 150.926 104.743 146.776V8.51423Z"/>
<path d="M43.1217 154.29C38.9714 154.29 35.6069 150.926 35.6069 146.776V131.748C35.6069 127.598 38.9714 124.233 43.1217 124.233H127.287C131.438 124.233 134.802 127.598 134.802 131.748V146.776C134.802 150.926 131.438 154.29 127.287 154.29H43.1217Z"/>
</mask>
<path d="M7.39187 154.157C-1.13061 145.653 -1.13063 131.865 7.39185 123.362L104.069 26.8961C112.591 18.3922 126.409 18.3922 134.931 26.896L231.608 123.361C240.131 131.865 240.131 145.653 231.608 154.157L134.931 250.622C126.409 259.126 112.591 259.126 104.069 250.622L7.39187 154.157Z" fill="black"/>
<path d="M182.386 165.682C185.538 166.156 188.628 164.388 189.551 161.344C191.823 153.841 192.895 146.009 192.714 138.144C192.492 128.46 190.376 118.915 186.487 110.054C182.597 101.193 177.011 93.1889 170.047 86.4995C163.297 80.0159 163.531 80.3572 155.377 75.5874C154.843 75.2749 154.283 75.0072 153.704 74.7887L150.324 73.5138C149.19 73.086 147.958 72.9859 146.77 73.225C145.517 73.4771 144.367 74.0953 143.467 75.0009L142.785 75.6866C142.173 76.3021 141.713 77.0508 141.44 77.8738C140.776 79.8767 141.296 82.0818 142.785 83.5795L142.935 83.7301C143.212 84.0087 143.515 84.2593 143.842 84.4782L144.928 85.2065C145.372 85.5044 145.786 85.8454 146.162 86.2245L146.334 86.3969C146.836 86.9021 147.417 87.3231 148.054 87.6434C148.41 87.8224 148.749 88.0331 149.066 88.2729L151.582 90.1704L153.826 91.6757L158.279 95.5951C159.292 96.4869 160.131 97.5586 160.752 98.7559L168.393 113.489C168.658 113.999 168.882 114.53 169.062 115.075L175.525 134.578L177.391 141.461C177.642 142.388 177.769 143.344 177.769 144.304V152.013C177.769 152.93 177.648 153.843 177.408 154.728L176.774 157.066C176.022 159.838 177.088 162.797 179.424 164.476C180.3 165.105 181.319 165.521 182.386 165.682Z" fill="white"/>
<path d="M55.1688 159.986C52.616 162.082 51.595 165.594 52.9422 168.607C56.1494 175.778 60.4728 182.398 65.7586 188.213C72.2767 195.384 80.1305 201.189 88.8717 205.296C97.6128 209.404 107.07 211.734 116.703 212.153C125.2 212.523 133.688 211.4 141.788 208.843C143.856 208.19 145.47 206.556 146.243 204.535C147.773 200.536 145.624 196.025 141.528 194.753C140.107 194.312 138.591 194.331 137.138 194.656C130.464 196.149 124.106 195.29 117.437 195C110.035 194.678 102.769 192.888 96.0538 189.732C89.3381 186.576 83.3042 182.116 78.2964 176.607C73.2887 171.098 72.665 169.125 70.4173 166.857L67.4203 163.076L66.281 161.466C64.6731 159.195 61.9534 157.976 59.1837 158.287C57.7135 158.452 56.3112 159.048 55.1688 159.986Z" fill="white"/>
<path d="M89.0275 71.494C79.0576 75.3574 74.8442 79.6151 67.4304 87.2771C61.3224 93.5895 56.4142 100.926 52.9247 108.931C51.6017 111.966 52.7855 115.449 55.526 117.313C56.7462 118.143 58.1888 118.588 59.6657 118.588H61.3873C62.7092 118.588 63.9957 118.161 65.0552 117.373C65.958 116.701 66.6579 115.793 67.0781 114.751L67.9417 112.607L70.954 107.375C75.2005 101.052 74.4741 102.51 79.0452 97.8775C79.6755 97.2388 80.3766 96.6666 81.1462 96.2041C85.9001 93.3473 87.6026 92.8747 91.2481 88.8369C91.7808 88.2469 92.3615 87.6998 92.9994 87.2249L95.0519 85.6968L97.012 84.3997C98.658 83.3105 99.8371 81.6474 100.319 79.736L100.372 79.5219C100.825 77.7251 100.58 75.8239 99.6877 74.1994C97.9005 70.9469 93.9637 69.534 90.5097 70.9055L89.0275 71.494Z" fill="white"/>
<path d="M179.64 139.274C179.64 172.346 152.771 199.157 119.626 199.157C86.4815 199.157 59.6124 172.346 59.6124 139.274C59.6124 106.202 86.4815 79.3917 119.626 79.3917C152.771 79.3917 179.64 106.202 179.64 139.274Z" fill="black"/>
<path d="M104.045 144.789C101.11 141.854 101.11 137.096 104.045 134.162L114.672 123.535C117.607 120.601 122.365 120.601 125.3 123.535L192.715 190.945C195.65 193.88 195.65 198.638 192.715 201.572L182.088 212.199C179.153 215.133 174.395 215.133 171.46 212.199L104.045 144.789Z" fill="white"/>
<path d="M104.743 8.51423C104.743 4.36424 108.107 1 112.258 1H127.287C131.438 1 134.802 4.36423 134.802 8.51423V146.776C134.802 150.926 131.438 154.29 127.287 154.29H112.258C108.107 154.29 104.743 150.926 104.743 146.776V8.51423Z" fill="#E41C1C"/>
<path d="M43.1217 154.29C38.9714 154.29 35.6069 150.926 35.6069 146.776V131.748C35.6069 127.598 38.9714 124.233 43.1217 124.233H127.287C131.438 124.233 134.802 127.598 134.802 131.748V146.776C134.802 150.926 131.438 154.29 127.287 154.29H43.1217Z" fill="#E41C1C"/>
<path d="M134.302 146.776C134.302 150.65 131.162 153.79 127.287 153.79V154.79C131.714 154.79 135.302 151.202 135.302 146.776H134.302ZM134.931 250.622L135.638 251.33L134.931 250.622ZM104.069 250.622L103.362 251.33L104.069 250.622ZM231.608 123.361L232.314 122.654L231.608 123.361ZM231.608 154.157L230.902 153.449L231.608 154.157ZM104.069 26.8961L104.775 27.6039L104.069 26.8961ZM134.931 26.896L134.225 27.6039L134.931 26.896ZM7.39185 123.362L6.68552 122.654L7.39185 123.362ZM7.39187 154.157L8.0982 153.449L7.39187 154.157ZM192.714 138.144L193.714 138.121L192.714 138.144ZM170.047 86.4995L170.739 85.7783L170.047 86.4995ZM153.826 91.6757L154.487 90.9251L154.438 90.8818L154.383 90.8452L153.826 91.6757ZM151.582 90.1704L150.979 90.9687L151.001 90.9855L151.025 91.0009L151.582 90.1704ZM175.525 134.578L176.49 134.316L176.483 134.289L176.474 134.263L175.525 134.578ZM150.324 73.5138L149.971 74.4494L150.324 73.5138ZM146.77 73.225L146.573 72.2446L146.77 73.225ZM143.467 75.0009L142.757 74.2959L143.467 75.0009ZM144.928 85.2065L145.485 84.3759H145.485L144.928 85.2065ZM146.162 86.2245L146.872 85.5195L146.872 85.5195L146.162 86.2245ZM142.935 83.7301L143.644 83.0251L143.644 83.0251L142.935 83.7301ZM143.842 84.4782L143.285 85.3087H143.285L143.842 84.4782ZM148.054 87.6434L147.604 88.5368L148.054 87.6434ZM149.066 88.2729L148.464 89.0712L149.066 88.2729ZM177.391 141.461L178.356 141.199L177.391 141.461ZM160.752 98.7559L159.864 99.2163L160.752 98.7559ZM158.279 95.5951L157.618 96.3458L158.279 95.5951ZM146.334 86.3969L145.625 87.1019L145.625 87.1019L146.334 86.3969ZM179.424 164.476L178.84 165.288L179.424 164.476ZM182.386 165.682L182.237 166.67L182.386 165.682ZM141.44 77.8738L142.389 78.1884L141.44 77.8738ZM142.785 83.5795L142.076 84.2845L142.076 84.2845L142.785 83.5795ZM176.774 157.066L177.739 157.328V157.328L176.774 157.066ZM177.408 154.728L176.443 154.466L177.408 154.728ZM155.377 75.5874L154.872 76.4506L155.377 75.5874ZM153.704 74.7887L154.057 73.853L153.704 74.7887ZM142.785 75.6866L143.494 76.3916V76.3916L142.785 75.6866ZM168.393 113.489L169.281 113.029L168.393 113.489ZM169.062 115.075L170.012 114.761L169.062 115.075ZM189.551 161.344L188.593 161.054L189.551 161.344ZM65.7586 188.213L66.4986 187.541L65.7586 188.213ZM116.703 212.153L116.747 211.154L116.703 212.153ZM117.437 195L117.48 194.001L117.437 195ZM70.4173 166.857L69.6337 167.478L69.668 167.521L69.707 167.56L70.4173 166.857ZM67.4203 163.076L66.6041 163.654L66.6198 163.676L66.6367 163.697L67.4203 163.076ZM59.1837 158.287L59.0722 157.293L59.1837 158.287ZM66.281 161.466L65.4648 162.044L66.281 161.466ZM52.9422 168.607L52.0294 169.015L52.9422 168.607ZM55.1688 159.986L55.8034 160.759L55.1688 159.986ZM141.788 208.843L141.487 207.889L141.788 208.843ZM146.243 204.535L147.177 204.892L146.243 204.535ZM141.528 194.753L141.232 195.708L141.528 194.753ZM137.138 194.656L137.357 195.632L137.138 194.656ZM89.0275 71.494L89.3888 72.4265L89.3965 72.4234L89.0275 71.494ZM67.4304 87.2771L66.7117 86.5817L67.4304 87.2771ZM70.954 107.375L70.1238 106.817L70.1046 106.846L70.0873 106.876L70.954 107.375ZM67.9417 112.607L67.0751 112.108L67.0403 112.169L67.0142 112.234L67.9417 112.607ZM95.0519 85.6968L94.5001 84.8629L94.477 84.8782L94.4548 84.8947L95.0519 85.6968ZM65.0552 117.373L65.6524 118.175L65.0552 117.373ZM67.0781 114.751L66.1506 114.377L67.0781 114.751ZM55.526 117.313L56.0886 116.486L55.526 117.313ZM100.372 79.5219L101.342 79.7662L101.342 79.7661L100.372 79.5219ZM99.6877 74.1994L98.8113 74.681L99.6877 74.1994ZM91.2481 88.8369L91.9904 89.507L91.2481 88.8369ZM92.9994 87.2249L92.4022 86.4228L92.9994 87.2249ZM79.0452 97.8775L78.3334 97.1751L79.0452 97.8775ZM81.1462 96.2041L81.6612 97.0612L81.1462 96.2041ZM100.319 79.736L99.3488 79.4918H99.3488L100.319 79.736ZM97.012 84.3997L96.4602 83.5658H96.4601L97.012 84.3997ZM90.5097 70.9055L90.8788 71.8349L90.5097 70.9055ZM52.9247 108.931L53.8414 109.331L52.9247 108.931ZM182.088 212.199L181.38 211.492L182.088 212.199ZM171.46 212.199L172.167 211.492L171.46 212.199ZM192.715 190.945L193.422 190.238L192.715 190.945ZM192.715 201.572L193.422 202.279L192.715 201.572ZM114.672 123.535L113.965 122.828L114.672 123.535ZM125.3 123.535L124.593 124.242L125.3 123.535ZM104.045 134.162L104.752 134.869L104.045 134.162ZM104.045 144.789L103.338 145.496L104.045 144.789ZM127.287 124.233V123.233V124.233ZM134.802 131.748H133.802H134.802ZM35.6069 131.748H34.6069H35.6069ZM43.1217 124.233V125.233V124.233ZM35.6069 146.776H36.6069H35.6069ZM43.1217 154.29V155.29V154.29ZM8.09818 124.069L104.775 27.6039L103.362 26.1882L6.68552 122.654L8.09818 124.069ZM134.225 27.6039L230.902 124.069L232.314 122.654L135.638 26.1882L134.225 27.6039ZM230.902 153.449L134.225 249.914L135.638 251.33L232.314 154.865L230.902 153.449ZM104.775 249.914L8.0982 153.449L6.68554 154.865L103.362 251.33L104.775 249.914ZM134.225 249.914C126.093 258.029 112.907 258.029 104.775 249.914L103.362 251.33C112.275 260.223 126.725 260.223 135.638 251.33L134.225 249.914ZM230.902 124.069C239.033 132.182 239.033 145.336 230.902 153.449L232.314 154.865C241.229 145.97 241.229 131.548 232.314 122.654L230.902 124.069ZM104.775 27.6039C112.907 19.4896 126.093 19.4896 134.225 27.6039L135.638 26.1882C126.725 17.2948 112.275 17.2948 103.362 26.1882L104.775 27.6039ZM6.68552 122.654C-2.22852 131.548 -2.2285 145.97 6.68554 154.865L8.0982 153.449C-0.0327233 145.336 -0.0327402 132.183 8.09818 124.069L6.68552 122.654ZM190.508 161.634C192.811 154.029 193.897 146.092 193.714 138.121L191.715 138.167C191.893 145.926 190.835 153.652 188.593 161.054L190.508 161.634ZM193.714 138.121C193.489 128.307 191.344 118.633 187.402 109.652L185.571 110.456C189.408 119.197 191.495 128.614 191.715 138.167L193.714 138.121ZM187.402 109.652C183.46 100.671 177.798 92.5588 170.739 85.7783L169.354 87.2207C176.224 93.8192 181.734 101.714 185.571 110.456L187.402 109.652ZM170.739 85.7783C167.378 82.5492 165.698 80.9626 163.829 79.594C161.971 78.2333 159.927 77.0901 155.882 74.7243L154.872 76.4506C158.982 78.8545 160.897 79.9256 162.648 81.2076C164.388 82.4816 165.966 83.9662 169.354 87.2207L170.739 85.7783ZM159.864 99.2163L167.505 113.95L169.281 113.029L161.639 98.2954L159.864 99.2163ZM153.166 92.4264L157.618 96.3458L158.94 94.8445L154.487 90.9251L153.166 92.4264ZM151.025 91.0009L153.269 92.5063L154.383 90.8452L152.139 89.3399L151.025 91.0009ZM168.113 115.39L174.576 134.892L176.474 134.263L170.012 114.761L168.113 115.39ZM174.56 134.839L176.426 141.722L178.356 141.199L176.49 134.316L174.56 134.839ZM176.443 154.466L175.809 156.805L177.739 157.328L178.373 154.99L176.443 154.466ZM148.464 89.0712L150.979 90.9687L152.184 89.3721L149.669 87.4746L148.464 89.0712ZM142.076 84.2845L142.225 84.4352L143.644 83.0251L143.494 82.8745L142.076 84.2845ZM143.285 85.3087L144.371 86.037L145.485 84.3759L144.399 83.6477L143.285 85.3087ZM145.453 86.9295L145.625 87.1019L147.043 85.6919L146.872 85.5195L145.453 86.9295ZM142.757 74.2959L142.076 74.9816L143.494 76.3916L144.176 75.7059L142.757 74.2959ZM154.057 73.853L150.677 72.5781L149.971 74.4494L153.351 75.7243L154.057 73.853ZM150.677 72.5781C149.368 72.0841 147.945 71.9685 146.573 72.2446L146.967 74.2053C147.972 74.0032 149.013 74.0879 149.971 74.4494L150.677 72.5781ZM144.176 75.7059C144.936 74.9409 145.908 74.4184 146.967 74.2053L146.573 72.2446C145.125 72.5358 143.797 73.2496 142.757 74.2959L144.176 75.7059ZM144.371 86.037C144.76 86.2982 145.123 86.5972 145.453 86.9295L146.872 85.5195C146.448 85.0936 145.984 84.7105 145.485 84.3759L144.371 86.037ZM142.225 84.4352C142.549 84.7605 142.904 85.0531 143.285 85.3087L144.399 83.6477C144.127 83.4655 143.874 83.257 143.644 83.0251L142.225 84.4352ZM147.604 88.5368C147.907 88.6887 148.194 88.8676 148.464 89.0712L149.669 87.4746C149.303 87.1985 148.913 86.956 148.503 86.75L147.604 88.5368ZM176.426 141.722C176.654 142.564 176.769 143.432 176.769 144.304H178.769C178.769 143.255 178.63 142.211 178.356 141.199L176.426 141.722ZM161.639 98.2954C160.961 96.9882 160.046 95.818 158.94 94.8445L157.618 96.3458C158.539 97.1558 159.3 98.1291 159.864 99.2163L161.639 98.2954ZM148.503 86.75C147.962 86.478 147.469 86.1207 147.043 85.6919L145.625 87.1019C146.203 87.6836 146.871 88.1681 147.604 88.5368L148.503 86.75ZM178.84 165.288C179.844 166.009 181.012 166.486 182.237 166.67L182.535 164.693C181.626 164.556 180.755 164.201 180.007 163.663L178.84 165.288ZM140.491 77.5593C139.708 79.9205 140.321 82.5197 142.076 84.2845L143.494 82.8745C142.271 81.6439 141.844 79.833 142.389 78.1884L140.491 77.5593ZM180.007 163.663C178.007 162.226 177.098 159.693 177.739 157.328L175.809 156.805C174.947 159.983 176.17 163.369 178.84 165.288L180.007 163.663ZM176.769 152.013C176.769 152.842 176.66 153.666 176.443 154.466L178.373 154.99C178.636 154.019 178.769 153.018 178.769 152.013H176.769ZM155.882 74.7243C155.3 74.3837 154.689 74.0916 154.057 73.853L153.351 75.7243C153.877 75.9228 154.386 76.1661 154.872 76.4506L155.882 74.7243ZM142.389 78.1884C142.613 77.5124 142.991 76.8974 143.494 76.3916L142.076 74.9816C141.355 75.7068 140.812 76.5891 140.491 77.5593L142.389 78.1884ZM167.505 113.95C167.746 114.413 167.949 114.895 168.113 115.39L170.012 114.761C169.814 114.165 169.57 113.586 169.281 113.029L167.505 113.95ZM188.593 161.054C187.829 163.579 185.243 165.1 182.535 164.693L182.237 166.67C185.833 167.212 189.428 165.198 190.508 161.634L188.593 161.054ZM52.0294 169.015C55.2796 176.282 59.6613 182.992 65.0187 188.886L66.4986 187.541C61.2844 181.805 57.0192 175.273 53.8551 168.198L52.0294 169.015ZM65.0187 188.886C71.625 196.154 79.5857 202.038 88.4464 206.201L89.297 204.391C80.6754 200.34 72.9284 194.614 66.4986 187.541L65.0187 188.886ZM88.4464 206.201C97.3071 210.365 106.894 212.727 116.66 213.152L116.747 211.154C107.246 210.741 97.9185 208.443 89.297 204.391L88.4464 206.201ZM116.66 213.152C125.274 213.527 133.878 212.389 142.089 209.796L141.487 207.889C133.498 210.411 125.127 211.519 116.747 211.154L116.66 213.152ZM136.92 193.68C130.415 195.135 124.266 194.296 117.48 194.001L117.393 195.999C123.946 196.284 130.512 197.163 137.357 195.632L136.92 193.68ZM117.48 194.001C110.211 193.684 103.075 191.926 96.4791 188.827L95.6285 190.637C102.464 193.849 109.859 195.671 117.393 195.999L117.48 194.001ZM96.4791 188.827C89.883 185.727 83.9559 181.346 79.0364 175.934L77.5565 177.28C82.6525 182.886 88.7933 187.425 95.6285 190.637L96.4791 188.827ZM79.0364 175.934C76.563 173.213 75.1783 171.373 74.1314 169.929C73.09 168.494 72.3191 167.355 71.1276 166.153L69.707 167.56C70.7632 168.626 71.428 169.609 72.5124 171.104C73.5911 172.591 75.0221 174.492 77.5565 177.28L79.0364 175.934ZM71.2009 166.235L68.204 162.455L66.6367 163.697L69.6337 167.478L71.2009 166.235ZM68.2366 162.498L67.0972 160.889L65.4648 162.044L66.6041 163.654L68.2366 162.498ZM59.2951 159.281C61.7036 159.011 64.0676 160.07 65.4648 162.044L67.0972 160.889C65.2785 158.319 62.2033 156.942 59.0722 157.293L59.2951 159.281ZM53.8551 168.198C52.7121 165.643 53.5591 162.602 55.8034 160.759L54.5343 159.213C51.673 161.562 50.4779 165.546 52.0294 169.015L53.8551 168.198ZM55.8034 160.759C56.7979 159.943 58.0189 159.424 59.2951 159.281L59.0722 157.293C57.4082 157.48 55.8246 158.154 54.5343 159.213L55.8034 160.759ZM142.089 209.796C144.474 209.043 146.305 207.171 147.177 204.892L145.309 204.178C144.634 205.941 143.237 207.337 141.487 207.889L142.089 209.796ZM147.177 204.892C148.91 200.362 146.48 195.244 141.825 193.798L141.232 195.708C144.767 196.806 146.636 200.71 145.309 204.178L147.177 204.892ZM137.357 195.632C138.677 195.336 140.012 195.329 141.232 195.708L141.825 193.798C140.203 193.294 138.504 193.326 136.92 193.68L137.357 195.632ZM88.6661 70.5616C78.4829 74.5077 74.1435 78.9011 66.7117 86.5817L68.149 87.9725C75.5448 80.3291 79.6324 76.2072 89.3888 72.4265L88.6661 70.5616ZM66.7117 86.5817C60.5207 92.98 55.5454 100.417 52.008 108.532L53.8414 109.331C57.2831 101.435 62.1242 94.199 68.149 87.9725L66.7117 86.5817ZM71.7841 107.932C73.9141 104.761 74.7538 103.608 75.6152 102.668C76.0491 102.194 76.4944 101.768 77.1411 101.149C77.7842 100.533 78.604 99.7482 79.757 98.5799L78.3334 97.1751C77.2008 98.3228 76.3972 99.0924 75.7582 99.704C75.1228 100.312 74.6272 100.785 74.1405 101.317C73.1608 102.386 72.2404 103.666 70.1238 106.817L71.7841 107.932ZM81.6612 97.0612C86.3407 94.2492 88.2182 93.6851 91.9904 89.507L90.5059 88.1667C86.987 92.0643 85.4595 92.4454 80.6311 95.3469L81.6612 97.0612ZM101.288 79.9803L101.342 79.7662L99.4027 79.2777L99.3488 79.4918L101.288 79.9803ZM68.0056 115.124L68.8693 112.981L67.0142 112.234L66.1506 114.377L68.0056 115.124ZM68.8084 113.106L71.8206 107.874L70.0873 106.876L67.0751 112.108L68.8084 113.106ZM59.6657 119.588H61.3873V117.588H59.6657V119.588ZM93.5965 88.027L95.6491 86.4989L94.4548 84.8947L92.4022 86.4228L93.5965 88.027ZM95.6038 86.5308L97.5639 85.2337L96.4601 83.5658L94.5001 84.8629L95.6038 86.5308ZM90.1407 69.9761L88.6584 70.5646L89.3965 72.4234L90.8788 71.8349L90.1407 69.9761ZM61.3873 119.588C62.9242 119.588 64.4202 119.092 65.6524 118.175L64.4581 116.571C63.5713 117.231 62.4942 117.588 61.3873 117.588V119.588ZM66.1506 114.377C65.7991 115.249 65.2137 116.008 64.4581 116.571L65.6524 118.175C66.7024 117.393 67.5167 116.338 68.0056 115.124L66.1506 114.377ZM54.9635 118.14C56.3497 119.083 57.9883 119.588 59.6657 119.588V117.588C58.3893 117.588 57.1427 117.204 56.0886 116.486L54.9635 118.14ZM101.342 79.7661C101.856 77.7241 101.578 75.5637 100.564 73.7178L98.8113 74.681C99.5824 76.0842 99.7935 77.726 99.4027 79.2777L101.342 79.7661ZM91.9904 89.507C92.4873 88.9566 93.0202 88.4561 93.5965 88.027L92.4022 86.4228C91.7028 86.9435 91.0743 87.5371 90.5059 88.1667L91.9904 89.507ZM79.757 98.5799C80.3373 97.9918 80.9735 97.4745 81.6612 97.0612L80.6311 95.3469C79.7796 95.8586 79.0137 96.4857 78.3334 97.1751L79.757 98.5799ZM99.3488 79.4918C98.9284 81.161 97.8985 82.614 96.4602 83.5658L97.5639 85.2337C99.4175 84.007 100.746 82.1337 101.288 79.9803L99.3488 79.4918ZM100.564 73.7178C98.5335 70.0224 94.0624 68.4189 90.1407 69.9761L90.8788 71.8349C93.8651 70.6492 97.2674 71.8714 98.8113 74.681L100.564 73.7178ZM52.008 108.532C50.474 112.051 51.8658 116.032 54.9635 118.14L56.0886 116.486C53.7053 114.865 52.7293 111.882 53.8414 109.331L52.008 108.532ZM178.64 139.274C178.64 171.792 152.221 198.157 119.626 198.157V200.157C153.321 200.157 180.64 172.901 180.64 139.274H178.64ZM119.626 198.157C87.0317 198.157 60.6124 171.792 60.6124 139.274H58.6124C58.6124 172.901 85.9313 200.157 119.626 200.157V198.157ZM60.6124 139.274C60.6124 106.756 87.0317 80.3917 119.626 80.3917V78.3917C85.9313 78.3917 58.6124 105.648 58.6124 139.274H60.6124ZM119.626 80.3917C152.221 80.3917 178.64 106.756 178.64 139.274H180.64C180.64 105.648 153.321 78.3917 119.626 78.3917V80.3917ZM104.752 134.869L115.38 124.242L113.965 122.828L103.338 133.455L104.752 134.869ZM124.593 124.242L192.008 191.652L193.422 190.238L126.007 122.828L124.593 124.242ZM192.008 200.865L181.38 211.492L182.795 212.906L193.422 202.279L192.008 200.865ZM172.167 211.492L104.752 144.082L103.338 145.496L170.753 212.906L172.167 211.492ZM181.38 211.492C178.836 214.036 174.711 214.036 172.167 211.492L170.753 212.906C174.078 216.231 179.469 216.231 182.795 212.906L181.38 211.492ZM192.008 191.652C194.552 194.196 194.552 198.321 192.008 200.865L193.422 202.279C196.747 198.954 196.747 193.563 193.422 190.238L192.008 191.652ZM115.38 124.242C117.924 121.698 122.049 121.698 124.593 124.242L126.007 122.828C122.682 119.503 117.291 119.503 113.965 122.828L115.38 124.242ZM103.338 133.455C100.013 136.78 100.013 142.171 103.338 145.496L104.752 144.082C102.208 141.538 102.208 137.413 104.752 134.869L103.338 133.455ZM112.258 2H127.287V0H112.258V2ZM133.802 8.51423V146.776H135.802V8.51423H133.802ZM127.287 153.29H112.258V155.29H127.287V153.29ZM105.743 146.776V8.51423H103.743V146.776H105.743ZM112.258 153.29C108.66 153.29 105.743 150.374 105.743 146.776H103.743C103.743 151.478 107.555 155.29 112.258 155.29V153.29ZM127.287 2C130.885 2 133.802 4.91659 133.802 8.51423H135.802C135.802 3.81188 131.99 0 127.287 0V2ZM112.258 0C107.555 0 103.743 3.81188 103.743 8.51423H105.743C105.743 4.91659 108.66 2 112.258 2V0ZM36.6069 146.776V131.748H34.6069V146.776H36.6069ZM43.1217 125.233H127.287V123.233H43.1217V125.233ZM133.802 131.748V146.776H135.802V131.748H133.802ZM127.287 153.29H43.1217V155.29H127.287V153.29ZM127.287 125.233C130.885 125.233 133.802 128.15 133.802 131.748H135.802C135.802 127.045 131.99 123.233 127.287 123.233V125.233ZM36.6069 131.748C36.6069 128.15 39.5236 125.233 43.1217 125.233V123.233C38.4192 123.233 34.6069 127.045 34.6069 131.748H36.6069ZM34.6069 146.776C34.6069 151.478 38.4192 155.29 43.1217 155.29V153.29C39.5236 153.29 36.6069 150.374 36.6069 146.776H34.6069ZM176.769 144.304V152.013H178.769V144.304H176.769Z" fill="black" mask="url(#path-1-outside-1_70_70)"/>
</svg>
