<svg width="256" height="256" xmlns="http://www.w3.org/2000/svg" fill-rule="nonzero">

 <g>
  <title>Layer 1</title>
  <ellipse ry="118.57144" rx="118.57144" id="svg_20" cy="127.99999" cx="128.00001" stroke="#000000" fill="#000"/>
  <g id="svg_1" transform="translate(25.6, 25.6) scale(0.8)">
   <g id="svg_2" text-anchor="none" font-size="none" font-weight="none" font-family="none" stroke-dashoffset="0" stroke-miterlimit="10" fill-rule="nonzero" fill="#000000">
    <path id="shape" d="m126.75,256.3125c-70.69245,0 -128,-57.30755 -128,-128l0,0c0,-70.69245 57.30755,-128 128,-128l0,0c70.69245,0 128,57.30755 128,128l0,0c0,70.69245 -57.30755,128 -128,128z"/>
   </g>
   <g id="svg_3" text-anchor="none" font-size="none" font-weight="none" font-family="none" stroke-dashoffset="0" stroke-miterlimit="10" stroke-width="3" stroke="#ffffff" fill-rule="nonzero" fill="none">
    <g id="svg_4" transform="translate(1.25) scale(5.33333)">
     <g id="Слой_1">
      <path id="svg_5" d="m23.03125,30.55859l0,-24c0,-1.9 -2.3,-2.7 -3.4,-1.2l-16,21c-1.3,1.7 -0.1,4.2 2,4.2l17.4,0z"/>
      <path id="svg_6" d="m23.03125,18.55859l0,24c0,1.9 2.4,2.7 3.6,1.2l16.8,-21c1.4,-1.7 0.1,-4.2 -2.1,-4.2l-18.3,0z"/>
     </g>
    </g>
   </g>
  </g>
 </g>
</svg>