<!DOCTYPE svg PUBLIC "-//W3C//DTD SVG 1.1//EN" "http://www.w3.org/Graphics/SVG/1.1/DTD/svg11.dtd">
<!-- Uploaded to: SVG Repo, www.svgrepo.com, Transformed by: SVG Repo Mixer Tools -->
<svg width="800px" height="800px" viewBox="-5.6 -5.6 27.20 27.20" fill="none" xmlns="http://www.w3.org/2000/svg">
<g id="SVGRepo_bgCarrier" stroke-width="0">
<rect x="-5.6" y="-5.6" width="27.20" height="27.20" rx="13.6" fill="#000000" strokewidth="0"/>
</g>
<g id="SVGRepo_tracerCarrier" stroke-linecap="round" stroke-linejoin="round"/>
<g id="SVGRepo_iconCarrier"> <path fill-rule="nonzero" clip-rule="nonzero" d="M1.75 1.5C1.61193 1.5 1.5 1.61193 1.5 1.75V14.25C1.5 14.3881 1.61193 14.5 1.75 14.5H7.25V1.5H1.75ZM8.75 1.5V7.25H14.5V1.75C14.5 1.61193 14.3881 1.5 14.25 1.5H8.75ZM14.5 8.75H8.75V14.5H14.25C14.3881 14.5 14.5 14.3881 14.5 14.25V8.75ZM0 1.75C0 0.783501 0.783502 0 1.75 0H14.25C15.2165 0 16 0.783502 16 1.75V14.25C16 15.2165 15.2165 16 14.25 16H1.75C0.783502 16 0 15.2165 0 14.25V1.75Z" fill="#ffffff"/> </g>
</svg>